<svg width="517" height="142" viewBox="0 0 517 142" fill="none" xmlns="http://www.w3.org/2000/svg">
<path d="M84.24 16.376V107H55.824V71.672H28.816V107H0.4V16.376H28.816V49.016H55.824V16.376H84.24ZM131.329 107.896C124.076 107.896 117.548 106.403 111.745 103.416C105.942 100.429 101.377 96.1627 98.049 90.616C94.8063 84.984 93.185 78.4133 93.185 70.904C93.185 63.3947 94.8063 56.8667 98.049 51.32C101.377 45.688 105.942 41.3787 111.745 38.392C117.548 35.4053 124.076 33.912 131.329 33.912C138.582 33.912 145.11 35.4053 150.913 38.392C156.716 41.3787 161.238 45.688 164.481 51.32C167.809 56.8667 169.473 63.3947 169.473 70.904C169.473 78.4133 167.809 84.984 164.481 90.616C161.238 96.1627 156.716 100.429 150.913 103.416C145.11 106.403 138.582 107.896 131.329 107.896ZM131.329 83.32C133.974 83.32 136.193 82.296 137.985 80.248C139.777 78.1147 140.673 75 140.673 70.904C140.673 66.808 139.777 63.736 137.985 61.688C136.193 59.5547 133.974 58.488 131.329 58.488C128.684 58.488 126.465 59.5547 124.673 61.688C122.881 63.736 121.985 66.808 121.985 70.904C121.985 75 122.838 78.1147 124.545 80.248C126.337 82.296 128.598 83.32 131.329 83.32ZM206.816 12.28V107H178.4V12.28H206.816ZM233.986 29.048C229.037 29.048 225.069 27.7253 222.082 25.08C219.095 22.4347 217.602 19.1067 217.602 15.096C217.602 11 219.095 7.62933 222.082 4.98399C225.069 2.25333 229.037 0.887993 233.986 0.887993C238.85 0.887993 242.775 2.25333 245.762 4.98399C248.749 7.62933 250.242 11 250.242 15.096C250.242 19.1067 248.749 22.4347 245.762 25.08C242.775 27.7253 238.85 29.048 233.986 29.048ZM248.066 34.808V107H219.65V34.808H248.066ZM257.06 70.904C257.06 63.3093 258.34 56.7387 260.9 51.192C263.545 45.56 267.129 41.2933 271.652 38.392C276.175 35.4053 281.252 33.912 286.884 33.912C291.577 33.912 295.588 34.8933 298.916 36.856C302.329 38.7333 304.932 41.336 306.724 44.664V12.28H335.14V107H306.724V97.144C304.932 100.472 302.329 103.117 298.916 105.08C295.588 106.957 291.577 107.896 286.884 107.896C281.252 107.896 276.175 106.445 271.652 103.544C267.129 100.557 263.545 96.2907 260.9 90.744C258.34 85.112 257.06 78.4987 257.06 70.904ZM306.852 70.904C306.852 67.064 305.871 64.0773 303.908 61.944C301.945 59.8107 299.428 58.744 296.356 58.744C293.284 58.744 290.767 59.8107 288.804 61.944C286.841 64.0773 285.86 67.064 285.86 70.904C285.86 74.744 286.841 77.7307 288.804 79.864C290.767 81.9973 293.284 83.064 296.356 83.064C299.428 83.064 301.945 81.9973 303.908 79.864C305.871 77.7307 306.852 74.744 306.852 70.904ZM344.06 70.904C344.06 63.3093 345.34 56.7387 347.9 51.192C350.545 45.56 354.129 41.2933 358.652 38.392C363.175 35.4053 368.252 33.912 373.884 33.912C378.577 33.912 382.631 34.8933 386.044 36.856C389.457 38.7333 392.06 41.336 393.852 44.664V34.808H422.14V107H393.852V97.144C392.06 100.472 389.457 103.117 386.044 105.08C382.631 106.957 378.577 107.896 373.884 107.896C368.252 107.896 363.175 106.445 358.652 103.544C354.129 100.557 350.545 96.2907 347.9 90.744C345.34 85.112 344.06 78.4987 344.06 70.904ZM393.852 70.904C393.852 67.064 392.871 64.0773 390.908 61.944C388.945 59.8107 386.428 58.744 383.356 58.744C380.284 58.744 377.767 59.8107 375.804 61.944C373.841 64.0773 372.86 67.064 372.86 70.904C372.86 74.744 373.841 77.7307 375.804 79.864C377.767 81.9973 380.284 83.064 383.356 83.064C386.428 83.064 388.945 81.9973 390.908 79.864C392.871 77.7307 393.852 74.744 393.852 70.904ZM516.436 34.808L470.228 141.56H439.124L457.3 103.416L427.22 34.808H458.836L472.404 71.416L485.076 34.808H516.436Z" fill="white"/>
</svg>
