<svg width="662" height="94" viewBox="0 0 662 94" fill="none" xmlns="http://www.w3.org/2000/svg">
<path d="M84.24 2.376V93H55.824V57.672H28.816V93H0.4V2.376H28.816V35.016H55.824V2.376H84.24ZM141.185 93.896C132.652 93.896 124.801 91.8907 117.633 87.88C110.55 83.8693 104.918 78.3227 100.737 71.24C96.5557 64.1573 94.465 56.1787 94.465 47.304C94.465 38.4293 96.5557 30.4507 100.737 23.368C104.918 16.2853 110.55 10.7813 117.633 6.856C124.801 2.84533 132.652 0.839996 141.185 0.839996C149.718 0.839996 157.526 2.84533 164.609 6.856C171.692 10.7813 177.281 16.2853 181.377 23.368C185.558 30.4507 187.649 38.4293 187.649 47.304C187.649 56.1787 185.558 64.1573 181.377 71.24C177.281 78.3227 171.649 83.8693 164.481 87.88C157.398 91.8907 149.633 93.896 141.185 93.896ZM141.185 67.4C146.817 67.4 151.169 65.608 154.241 62.024C157.313 58.3547 158.849 53.448 158.849 47.304C158.849 41.0747 157.313 36.168 154.241 32.584C151.169 28.9147 146.817 27.08 141.185 27.08C135.468 27.08 131.073 28.9147 128.001 32.584C124.929 36.168 123.393 41.0747 123.393 47.304C123.393 53.448 124.929 58.3547 128.001 62.024C131.073 65.608 135.468 67.4 141.185 67.4ZM226.316 71.496H253.708V93H197.9V2.376H226.316V71.496ZM291.066 2.376V93H262.65V2.376H291.066ZM341.66 2.376C351.132 2.376 359.409 4.296 366.492 8.13599C373.66 11.976 379.164 17.3093 383.004 24.136C386.844 30.9627 388.764 38.728 388.764 47.432C388.764 56.0507 386.844 63.816 383.004 70.728C379.164 77.64 373.66 83.1013 366.492 87.112C359.409 91.0373 351.132 93 341.66 93H303.9V2.376H341.66ZM339.1 67.656C345.5 67.656 350.577 65.9067 354.332 62.408C358.087 58.9093 359.964 53.9173 359.964 47.432C359.964 40.9467 358.087 35.9547 354.332 32.456C350.577 28.9573 345.5 27.208 339.1 27.208H332.316V67.656H339.1ZM457.137 79.304H426.929L422.449 93H392.625L425.777 2.376H458.545L491.569 93H461.617L457.137 79.304ZM450.225 57.928L442.033 32.712L433.841 57.928H450.225ZM585.065 2.376L552.553 65.48V93H524.137V65.48L491.625 2.376H524.137L538.601 34.504L553.065 2.376H585.065ZM626.981 93.896C616.144 93.896 607.184 91.3787 600.101 86.344C593.104 81.224 589.306 73.7573 588.709 63.944H618.917C619.344 69.1493 621.648 71.752 625.829 71.752C627.365 71.752 628.645 71.4107 629.669 70.728C630.778 69.96 631.333 68.808 631.333 67.272C631.333 65.1387 630.181 63.432 627.877 62.152C625.573 60.7867 621.989 59.2507 617.125 57.544C611.322 55.496 606.501 53.4907 602.661 51.528C598.906 49.5653 595.664 46.7067 592.933 42.952C590.202 39.1973 588.88 34.376 588.965 28.488C588.965 22.6 590.458 17.608 593.445 13.512C596.517 9.33066 600.656 6.17333 605.861 4.03999C611.152 1.90666 617.082 0.839996 623.653 0.839996C634.746 0.839996 643.536 3.4 650.021 8.52C656.592 13.64 660.048 20.8507 660.389 30.152H629.797C629.712 27.592 629.072 25.7573 627.877 24.648C626.682 23.5387 625.232 22.984 623.525 22.984C622.33 22.984 621.349 23.4107 620.581 24.264C619.813 25.032 619.429 26.1413 619.429 27.592C619.429 29.64 620.538 31.3467 622.757 32.712C625.061 33.992 628.688 35.5707 633.637 37.448C639.354 39.5813 644.048 41.6293 647.717 43.592C651.472 45.5547 654.714 48.2853 657.445 51.784C660.176 55.2827 661.541 59.6773 661.541 64.968C661.541 70.5147 660.176 75.5067 657.445 79.944C654.714 84.296 650.746 87.7093 645.541 90.184C640.336 92.6587 634.149 93.896 626.981 93.896Z" fill="black"/>
</svg>
